<?xml version="1.0" encoding="UTF-8"?>
<svg version="1.1" xmlns="http://www.w3.org/2000/svg" width="512" height="512">
<path d="M0 0 C3.37172166 3.19881286 5.23583033 5.74108802 5.83622742 10.41938782 C5.84733047 11.58076767 5.85843353 12.74214752 5.86987305 13.9387207 C5.88516052 14.90541939 5.88516052 14.90541939 5.90075684 15.89164734 C5.93078582 18.00728156 5.94013669 20.12246229 5.94921875 22.23828125 C5.96607304 23.71088656 5.9842243 25.18347755 6.00361633 26.65605164 C6.0510415 30.52096074 6.08089895 34.38581177 6.10705566 38.25091553 C6.13689919 42.19929471 6.18341642 46.14747394 6.22851562 50.09570312 C6.31446346 57.83453604 6.38184627 65.57338363 6.4375 73.3125 C7.15292969 72.5918335 7.86835938 71.87116699 8.60546875 71.12866211 C11.29407884 68.42177088 13.98614562 65.71833901 16.67919922 63.01586914 C17.83800319 61.85207726 18.99590322 60.68738451 20.15283203 59.52172852 C31.87601208 47.71242312 31.87601208 47.71242312 37.80883789 42.7734375 C39.67308695 41.10117452 41.2600704 39.28706297 42.875 37.375 C54.16691524 24.20965336 54.16691524 24.20965336 63.4375 23.3125 C69.31129367 24.13689209 73.76749689 26.67566812 77.4375 31.3125 C79.38691345 35.70666965 79.58402799 39.33564673 78.875 44.0625 C77.22412413 47.79491501 75.38055201 49.48864172 72.4375 52.3125 C71.32929441 53.41106681 70.22340028 54.51196851 69.11938477 55.61474609 C68.21803551 56.51125381 68.21803551 56.51125381 67.29847717 57.4258728 C64.57888803 60.13199381 61.86202349 62.84084359 59.14526367 65.54980469 C57.71777631 66.97225597 56.2893937 68.39380942 54.86010742 69.81445312 C52.78063306 71.8817136 50.70448018 73.95226181 48.62890625 76.0234375 C47.99747208 76.64971039 47.3660379 77.27598328 46.71546936 77.92123413 C43.8380344 80.79830929 41.08111614 83.69350348 38.48803711 86.83056641 C33.71575611 92.45812155 28.37238412 96.75819727 22.10864258 100.62768555 C14.54096235 105.86586393 8.01257014 111.77310105 5.79479218 120.98090363 C3.20515606 137.16101778 4.38783855 153.98232749 4.99554443 170.28271484 C5.2123514 176.71761928 5.30669158 183.15427491 5.41210938 189.59179688 C5.63575989 202.16995577 5.99299069 214.7403407 6.4375 227.3125 C6.92400528 227.02593536 7.41051056 226.73937073 7.91175842 226.44412231 C10.14021784 225.13172471 12.36893496 223.81976534 14.59765625 222.5078125 C15.36291626 222.05704346 16.12817627 221.60627441 16.91662598 221.1418457 C31.91845034 212.3125 31.91845034 212.3125 34.4375 212.3125 C34.4375 211.6525 34.4375 210.9925 34.4375 210.3125 C35.0452124 209.97105957 35.6529248 209.62961914 36.27905273 209.27783203 C46.48552867 203.53867207 56.68705011 197.80072498 66.75 191.8125 C70.96000243 189.30900407 75.14793616 186.88141789 79.5625 184.75 C83.94468196 182.61198043 88.20579585 180.29475901 92.4375 177.875 C93.09766113 177.515271 93.75782227 177.15554199 94.43798828 176.78491211 C99.00383801 174.12140066 100.04238757 172.28247671 101.4375 167.3125 C101.62204742 166.65642258 101.80659485 166.00034515 101.99673462 165.3243866 C102.63397164 163.02868521 103.25045907 160.72811705 103.86328125 158.42578125 C104.2074836 157.14105171 104.2074836 157.14105171 104.55863953 155.83036804 C105.29080209 153.09569926 106.0203954 150.36035221 106.75 147.625 C107.22835693 145.83784814 107.70687126 144.0507384 108.18554688 142.26367188 C108.66156485 140.48440349 109.13747647 138.70510666 109.61328125 136.92578125 C109.84886749 136.04528107 110.08445374 135.16478088 110.32717896 134.25759888 C111.50340548 129.85115791 112.66589639 125.44180679 113.80224609 121.02490234 C114.02180466 120.17590866 114.24136322 119.32691498 114.46757507 118.45219421 C114.8772476 116.86478545 115.28348049 115.27648278 115.68537903 113.68708801 C116.79817582 109.38363904 118.15694873 105.2813759 119.76222229 101.13746643 C120.66366525 98.70127889 121.2835919 96.24046688 121.8671875 93.7109375 C122.10566406 92.72609375 122.34414063 91.74125 122.58984375 90.7265625 C123.07295969 88.69486413 123.54687652 86.66095702 124.01171875 84.625 C125.68814508 77.79378684 127.50578753 73.29517843 133.25 68.9375 C138.52510994 67.43032573 142.85279482 67.77172631 147.75 70.0625 C150.78105693 71.78009893 152.94529232 73.06475387 154.4375 76.3125 C156.42530779 85.20029443 153.85356355 92.95544818 151.5 101.5 C151.08783716 103.04103893 150.67712945 104.58246772 150.26782227 106.12426758 C149.42579446 109.28576471 148.57480225 112.44463021 147.71582031 115.6015625 C146.47700952 120.1566287 145.26239503 124.71785201 144.0546875 129.28125 C142.19659275 136.29554382 140.32289633 143.30548641 138.4375 150.3125 C139.48164063 149.72984375 140.52578125 149.1471875 141.6015625 148.546875 C143.08848046 147.71864011 144.57546543 146.89052551 146.0625 146.0625 C146.8570459 145.61938477 147.6515918 145.17626953 148.47021484 144.71972656 C153.04556524 142.17462719 157.6354529 139.66089724 162.25 137.1875 C163.21728027 136.66704102 164.18456055 136.14658203 165.18115234 135.61035156 C167.05879154 134.60168926 168.93920558 133.59817017 170.82275391 132.60058594 C175.75347483 129.94607086 180.28619715 127.12476653 184.68603516 123.65478516 C190.67789036 119.06275562 195.99556524 117.52805098 203.58984375 117.796875 C208.11903632 118.61697571 210.72317305 120.66277422 213.4375 124.3125 C215.56033802 128.65047334 215.86532616 132.52084698 215.4375 137.3125 C213.266884 143.34198888 209.1753171 146.83739967 203.66796875 149.8046875 C202.66378906 150.26101562 201.65960938 150.71734375 200.625 151.1875 C184.53973348 158.82817049 169.579624 168.97406318 154.4375 178.3125 C155.34064941 178.54324219 156.24379883 178.77398437 157.17431641 179.01171875 C165.5000903 181.14076061 173.82321472 183.2797652 182.14329529 185.43095398 C186.79706472 186.63360249 191.45306307 187.82686074 196.11169434 189.01052856 C198.84766412 189.70815594 201.58108674 190.41537773 204.31390381 191.12524414 C206.21265046 191.61535913 208.11436465 192.09393134 210.01611328 192.57226562 C222.88537299 195.93710621 222.88537299 195.93710621 227.375 201.875 C229.301719 208.10850264 228.56704333 213.96974346 225.75 219.8125 C222.27118741 223.57337848 219.37437502 225.20116503 214.2265625 225.49707031 C210.18098074 225.3000046 206.51276482 224.53446165 202.625 223.484375 C201.89361816 223.29409729 201.16223633 223.10381958 200.40869141 222.90777588 C198.08278969 222.30063439 195.7601935 221.68178809 193.4375 221.0625 C191.91035907 220.66198629 190.38301645 220.26224077 188.85546875 219.86328125 C185.8392901 219.07389959 182.82512617 218.27743993 179.8125 217.47460938 C176.96111081 216.71476462 174.10722237 215.96611379 171.25 215.22851562 C170.58500488 215.05531799 169.92000977 214.88212036 169.23486328 214.70367432 C167.44624206 214.23794906 165.65674865 213.77557696 163.8671875 213.31347656 C161.34065385 212.57609132 158.97064521 211.78095422 156.52416992 210.83789062 C152.47041964 209.28247297 148.37482013 208.10903115 144.17578125 207.015625 C143.42209763 206.81773376 142.668414 206.61984253 141.89189148 206.41595459 C140.31355182 206.00362239 138.73458772 205.59367358 137.1550293 205.18603516 C134.74293855 204.56066923 132.33547041 203.91924348 129.92773438 203.27734375 C128.38567387 202.87661313 126.84336423 202.47683967 125.30078125 202.078125 C124.22876213 201.7892038 124.22876213 201.7892038 123.13508606 201.4944458 C118.20402369 200.24744364 114.92670755 200.08047685 110.36035156 202.34057617 C109.6897168 202.75799072 109.01908203 203.17540527 108.328125 203.60546875 C107.57861572 204.06767822 106.82910645 204.5298877 106.05688477 205.00610352 C105.27498779 205.49908936 104.49309082 205.9920752 103.6875 206.5 C102.874021 207.00394287 102.06054199 207.50788574 101.22241211 208.02709961 C97.41859604 210.39440269 93.67649107 212.81350322 90 215.375 C84.91678537 218.84670627 79.39501873 221.52984936 73.9387207 224.35742188 C64.21281266 229.42180003 54.8261883 235.02651506 45.46484375 240.73046875 C24.77688053 253.3125 24.77688053 253.3125 20.4375 253.3125 C20.4375 253.9725 20.4375 254.6325 20.4375 255.3125 C21.17000977 255.59609375 21.90251953 255.8796875 22.65722656 256.171875 C26.97673487 257.94398097 31.05616707 260.14380174 35.1875 262.3125 C36.11618896 262.79944336 37.04487793 263.28638672 38.00170898 263.78808594 C46.01024334 268.02221566 53.8235294 272.53897104 61.58740234 277.203125 C68.0495448 281.07802277 74.5567149 284.8586927 81.1875 288.4375 C84.94722375 290.4726781 88.60225947 292.59788284 92.20703125 294.89453125 C96.24092541 297.45898586 100.3127841 299.95919887 104.40234375 302.43359375 C107.4375 304.3125 107.4375 304.3125 109.44140625 305.78515625 C111.76359841 307.43587116 113.69558815 308.36373959 116.5690918 308.1652832 C124.58573224 306.59883119 132.46620678 304.59008844 140.35424805 302.48120117 C142.6297278 301.87373786 144.9074572 301.27532624 147.18554688 300.67773438 C148.65899674 300.28699558 150.13230899 299.89573739 151.60546875 299.50390625 C152.27337936 299.3288002 152.94128998 299.15369415 153.62944031 298.97328186 C156.93474588 298.08359945 160.12896915 297.08146817 163.3215332 295.84423828 C167.84017041 294.10674926 172.44784417 292.84869433 177.125 291.61328125 C178.02694092 291.3733696 178.92888184 291.13345795 179.8581543 290.88627625 C181.75347244 290.38408541 183.64939871 289.88418463 185.54589844 289.38647461 C188.43183073 288.62649295 191.31350049 287.85161005 194.1953125 287.07617188 C196.04663238 286.58762134 197.89818745 286.099961 199.75 285.61328125 C200.60231201 285.38208084 201.45462402 285.15088043 202.33276367 284.91267395 C208.67215808 283.27385521 214.47646012 282.13925778 220.75 284.625 C224.91955611 287.24309337 226.05963088 288.19778611 227.6875 293 C228.86173647 298.36793816 228.37177144 302.89438568 226.375 308.0625 C221.43023509 313.80480764 213.22757676 315.41491921 206.15625 317.1875 C204.69862244 317.56430908 204.69862244 317.56430908 203.21154785 317.94873047 C200.12230527 318.74514005 197.03003094 319.52896855 193.9375 320.3125 C191.89301881 320.83772352 189.84874594 321.36375864 187.8046875 321.890625 C176.69491373 324.74796106 165.57059908 327.54752287 154.4375 330.3125 C158.00160896 332.71170548 161.56974655 334.97906742 165.31640625 337.08203125 C167.89577238 338.57834862 170.41081677 340.16625769 172.9375 341.75 C180.23938105 346.272236 187.7171997 350.46821604 195.21484375 354.65600586 C212.66991433 364.43138045 212.66991433 364.43138045 215.4375 370.3125 C216.0874507 376.16205628 215.39296281 380.09118237 212.4375 385.3125 C209.63830318 388.68589104 208.09610395 389.96135412 203.8359375 390.86328125 C195.0703852 391.45304796 188.59490666 388.12186534 181.4375 383.3125 C180.95676025 382.82217285 180.47602051 382.3318457 179.98071289 381.82666016 C177.38272524 379.27758258 174.10753401 377.73639091 170.9375 376 C170.21916992 375.60119629 169.50083984 375.20239258 168.76074219 374.79150391 C163.897283 372.09647294 159.00975956 369.44583243 154.12109375 366.796875 C149.17378473 364.06037219 144.30684358 361.18481786 139.4375 358.3125 C140.79710521 365.60333685 142.52734479 372.74677262 144.44140625 379.91015625 C145.02297885 382.11518364 145.6043531 384.32026335 146.18554688 386.52539062 C147.0937276 389.95779763 148.00390132 393.38964735 148.91772461 396.82055664 C149.80626011 400.16145968 150.68681842 403.50438808 151.56640625 406.84765625 C151.83932999 407.8635231 152.11225372 408.87938995 152.39344788 409.92604065 C156.68201097 426.28804374 156.68201097 426.28804374 153.52734375 433.5859375 C151.13839016 437.37058799 147.53918243 438.94527252 143.4375 440.3125 C137.31656919 440.81421564 134.3207905 440.40083623 129.4375 436.3125 C126.48158069 433.02301341 125.57334524 429.86286039 124.5 425.60546875 C124.3337915 424.96184891 124.16758301 424.31822906 123.99633789 423.65510559 C123.4680154 421.60551397 122.95181229 419.55314816 122.4375 417.5 C121.92196411 415.45792656 121.40363989 413.41669692 120.87866211 411.37702942 C120.40094058 409.5188681 119.93261986 407.65829731 119.46484375 405.79760742 C118.49846391 402.2644546 118.49846391 402.2644546 116.94458008 398.83911133 C115.39383557 395.21032397 114.33071498 391.59845646 113.38671875 387.78125 C113.11743561 386.72296997 113.11743561 386.72296997 112.8427124 385.64331055 C112.26482524 383.36768106 111.6948052 381.09016519 111.125 378.8125 C110.72787459 377.24138982 110.33016564 375.67042704 109.93188477 374.09960938 C109.33383847 371.7408392 108.73613931 369.38198997 108.14060974 367.02258301 C106.19587461 359.32433648 104.17315234 351.64694093 102.11401367 343.97851562 C101.77720581 342.70524414 101.77720581 342.70524414 101.43359375 341.40625 C101.14246704 340.31860352 101.14246704 340.31860352 100.84545898 339.20898438 C100.4375 337.3125 100.4375 337.3125 100.4375 334.3125 C99.61636719 334.08046875 98.79523438 333.8484375 97.94921875 333.609375 C93.71193935 332.04455102 90.09617942 329.90577522 86.25 327.5625 C80.69488783 324.20768855 75.08765721 320.99943952 69.38012695 317.91015625 C64.10443107 315.04579436 58.86591858 312.11485993 53.625 309.1875 C52.53251953 308.58035156 51.44003906 307.97320312 50.31445312 307.34765625 C39.07593956 301.06831635 39.07593956 301.06831635 35.4375 298.3125 C35.4375 297.6525 35.4375 296.9925 35.4375 296.3125 C34.73085205 296.21267822 34.0242041 296.11285645 33.29614258 296.01000977 C29.99545446 295.20464074 27.61932091 293.88566642 24.69921875 292.15234375 C23.09916992 291.2097168 23.09916992 291.2097168 21.46679688 290.24804688 C20.36400391 289.58869141 19.26121094 288.92933594 18.125 288.25 C16.44180664 287.25516602 16.44180664 287.25516602 14.72460938 286.24023438 C11.9583713 284.60403398 9.1962515 282.96128136 6.4375 281.3125 C5.78274048 295.03784616 5.28835914 308.75936847 4.98675919 322.49726486 C4.84182503 328.88065338 4.64618567 335.25321815 4.32519531 341.63037109 C1.62910942 373.83393809 1.62910942 373.83393809 14.44727707 401.96719742 C19.57233313 407.27514138 25.25270171 411.892707 31.32733154 416.06719971 C34.37475174 418.26720062 36.85106215 420.59492993 39.4375 423.3125 C40.67560534 424.54184972 41.91457367 425.77033113 43.15454102 426.99780273 C46.95738254 430.76493369 50.75401973 434.5382534 54.54858398 438.3137207 C56.18286788 439.93791341 57.81893758 441.56031118 59.45678711 443.1809082 C61.83142377 445.53122874 64.19949157 447.88800001 66.56640625 450.24609375 C67.29565811 450.96502304 68.02490997 451.68395233 68.77626038 452.42466736 C74.48790987 458.13505595 79.13417165 462.8193062 79.4375 471.3125 C78.61919132 476.32464069 76.37355795 478.98775268 72.49609375 482.04296875 C67.74322176 484.97405679 63.42118949 485.78137206 58 484.5 C49.32538954 479.91342435 42.67405292 471.57184777 36.2734375 464.3046875 C34.26839146 462.10721775 32.15333454 460.17021505 29.88525391 458.24658203 C24.8319468 453.8579578 20.14450383 449.12900157 15.4375 444.375 C14.56738281 443.50037109 13.69726562 442.62574219 12.80078125 441.72460938 C10.67736451 439.58952551 8.55633622 437.45212795 6.4375 435.3125 C6.43163376 436.11350128 6.42576752 436.91450256 6.41972351 437.73977661 C6.36173028 445.30221413 6.289616 452.86432467 6.20178509 460.4264698 C6.15712835 464.31391436 6.11786217 468.20125525 6.09106445 472.08886719 C6.06498417 475.84326287 6.02454914 479.59725866 5.97431374 483.3514061 C5.95767679 484.78101488 5.94614277 486.21069278 5.93988609 487.64038467 C5.93021133 489.64855235 5.90042573 491.65659223 5.86987305 493.66455078 C5.85321846 495.3766423 5.85321846 495.3766423 5.83622742 497.12332153 C5.23111874 501.96321835 3.31841421 506.24010959 -0.5625 509.3125 C-6.63013422 511.33504474 -13.34556016 511.3626294 -19.125 508.625 C-22.49672166 505.42618714 -24.36083033 502.88391198 -24.96122742 498.20561218 C-24.97233047 497.04423233 -24.98343353 495.88285248 -24.99487305 494.6862793 C-25.01016052 493.71958061 -25.01016052 493.71958061 -25.02575684 492.73335266 C-25.05578582 490.61771844 -25.06513669 488.50253771 -25.07421875 486.38671875 C-25.09107304 484.91411344 -25.1092243 483.44152245 -25.12861633 481.96894836 C-25.1760415 478.10403926 -25.20589895 474.23918823 -25.23205566 470.37408447 C-25.26189919 466.42570529 -25.30841642 462.47752606 -25.35351562 458.52929688 C-25.43946346 450.79046396 -25.50684627 443.05161637 -25.5625 435.3125 C-26.27792969 436.0331665 -26.99335938 436.75383301 -27.73046875 437.49633789 C-30.41907884 440.20322912 -33.11114562 442.90666099 -35.80419922 445.60913086 C-36.96300319 446.77292274 -38.12090322 447.93761549 -39.27783203 449.10327148 C-51.00101208 460.91257688 -51.00101208 460.91257688 -56.93383789 465.8515625 C-58.79808695 467.52382548 -60.3850704 469.33793703 -62 471.25 C-73.29191524 484.41534664 -73.29191524 484.41534664 -82.5625 485.3125 C-88.43629367 484.48810791 -92.89249689 481.94933188 -96.5625 477.3125 C-98.51191345 472.91833035 -98.70902799 469.28935327 -98 464.5625 C-96.34912413 460.83008499 -94.50555201 459.13635828 -91.5625 456.3125 C-90.45429441 455.21393319 -89.34840028 454.11303149 -88.24438477 453.01025391 C-87.64348526 452.41258209 -87.04258575 451.81491028 -86.42347717 451.1991272 C-83.70388803 448.49300619 -80.98702349 445.78415641 -78.27026367 443.07519531 C-76.84277631 441.65274403 -75.4143937 440.23119058 -73.98510742 438.81054688 C-71.90563306 436.7432864 -69.82948018 434.67273819 -67.75390625 432.6015625 C-67.12247208 431.97528961 -66.4910379 431.34901672 -65.84046936 430.70376587 C-62.9630344 427.82669071 -60.20611614 424.93149652 -57.61303711 421.79443359 C-52.84075611 416.16687845 -47.49738412 411.86680273 -41.23364258 407.99731445 C-33.66596235 402.75913607 -27.13757014 396.85189895 -24.91979218 387.64409637 C-22.33015606 371.46398222 -23.51283855 354.64267251 -24.12054443 338.34228516 C-24.3373514 331.90738072 -24.43169158 325.47072509 -24.53710938 319.03320312 C-24.76075989 306.45504423 -25.11799069 293.8846593 -25.5625 281.3125 C-26.26858398 281.73136475 -26.97466797 282.15022949 -27.70214844 282.58178711 C-30.90254828 284.47640066 -34.10744573 286.36327183 -37.3125 288.25 C-38.97925781 289.2390332 -38.97925781 289.2390332 -40.6796875 290.24804688 C-42.28457031 291.19067383 -42.28457031 291.19067383 -43.921875 292.15234375 C-45.39865723 293.02427368 -45.39865723 293.02427368 -46.90527344 293.91381836 C-49.18903993 295.1159222 -51.04341927 295.84997169 -53.5625 296.3125 C-53.5625 296.9725 -53.5625 297.6325 -53.5625 298.3125 C-54.24127197 298.68947021 -54.92004395 299.06644043 -55.61938477 299.45483398 C-71.37305641 308.1659763 -71.37305641 308.1659763 -86.875 317.3125 C-91.05698457 319.87247568 -95.27526388 322.22897076 -99.6875 324.375 C-104.11179802 326.54507009 -108.43381908 328.82735558 -112.6875 331.3125 C-113.76257813 331.93125 -114.83765625 332.55 -115.9453125 333.1875 C-120.75950914 337.09634025 -121.42571705 344.31644489 -122.98828125 350.1640625 C-123.21774948 351.01817719 -123.44721771 351.87229187 -123.68363953 352.75228882 C-124.16946018 354.56248484 -124.65437017 356.37292547 -125.13842773 358.18359375 C-125.85986532 360.88091424 -126.58496837 363.57722839 -127.31054688 366.2734375 C-130.52582367 378.25469547 -133.59164331 390.26839867 -136.5625 402.3125 C-137.2225 402.3125 -137.8825 402.3125 -138.5625 402.3125 C-138.67078125 403.22902344 -138.7790625 404.14554687 -138.890625 405.08984375 C-139.66007561 410.43698741 -140.99173681 415.64197615 -142.3125 420.875 C-142.55226563 421.89013672 -142.79203125 422.90527344 -143.0390625 423.95117188 C-144.76572856 430.76438252 -146.63978929 435.3366505 -152.375 439.6875 C-157.61449216 441.18449776 -161.98346749 440.85006175 -166.875 438.625 C-170.28047709 436.72193927 -172.06621561 435.0092026 -173.5625 431.3125 C-176.79793267 417.08712613 -168.57539353 398.72257992 -164.875 385.0625 C-163.96536348 381.69965967 -163.05718209 378.33646008 -162.15361023 374.97198486 C-161.59524287 372.89316515 -161.03337455 370.81528187 -160.46760559 368.73846436 C-160.21701889 367.80608948 -159.96643219 366.8737146 -159.70825195 365.91308594 C-159.37540947 364.68522369 -159.37540947 364.68522369 -159.0358429 363.43255615 C-158.45354803 361.18655738 -158.45354803 361.18655738 -158.5625 358.3125 C-159.61566406 358.9415625 -160.66882813 359.570625 -161.75390625 360.21875 C-168.90465957 364.46863153 -176.06356225 368.6476272 -183.4375 372.5 C-188.79200892 375.30320998 -193.9227069 378.33690151 -198.984375 381.640625 C-214.61973696 391.77992033 -214.61973696 391.77992033 -225.5625 390.3125 C-229.74685546 388.23826547 -231.96948018 385.52432312 -234 381.375 C-235.14542966 375.13877186 -235.09021539 370.72166361 -231.5625 365.3125 C-227.66199797 361.75895798 -224.06337461 359.36739847 -219.25 357.125 C-204.68994151 350.13325952 -191.05177135 341.24483523 -177.37329102 332.69458008 C-176.30051659 332.02402336 -176.30051659 332.02402336 -175.20606995 331.33992004 C-174.66369186 331.00087143 -174.12131378 330.66182281 -173.5625 330.3125 C-174.09659988 330.17326614 -174.63069977 330.03403229 -175.1809845 329.89057922 C-180.84476415 328.41404894 -186.50846295 326.93720884 -192.17211914 325.46020508 C-194.27333626 324.91227736 -196.37457259 324.36442329 -198.47583008 323.81665039 C-199.48734131 323.55295654 -200.49885254 323.2892627 -201.54101562 323.01757812 C-202.55026093 322.7545993 -203.55950623 322.49162048 -204.59933472 322.22067261 C-206.63011253 321.6905762 -208.6604886 321.15893836 -210.69046021 320.62576294 C-215.48746593 319.36682751 -220.28693635 318.12689382 -225.10302734 316.94287109 C-225.96594894 316.7268071 -226.82887054 316.5107431 -227.71794128 316.28813171 C-229.31301483 315.88946387 -230.91031994 315.49956623 -232.51020813 315.12068176 C-238.24331854 313.67249306 -242.83035376 311.60340309 -246.5 306.75 C-248.426719 300.51649736 -247.69204333 294.65525654 -244.875 288.8125 C-241.26685323 284.91180079 -238.37829377 283.4376181 -233.05834961 283.07104492 C-227.62627647 283.15749969 -222.58949486 284.62141577 -217.37890625 286.05078125 C-216.32396469 286.33221481 -215.26902313 286.61364838 -214.18211365 286.90361023 C-211.95960144 287.49841071 -209.73834841 288.09793407 -207.51831055 288.7019043 C-204.14174844 289.62044386 -200.76178016 290.52538489 -197.38085938 291.42773438 C-195.21332936 292.0096264 -193.04600459 292.5922836 -190.87890625 293.17578125 C-189.87863907 293.44465652 -188.87837189 293.7135318 -187.84779358 293.99055481 C-182.73161493 295.38437956 -177.69430392 296.90068718 -172.67579651 298.61186218 C-169.28038813 299.73756864 -165.83985311 300.67881473 -162.38671875 301.609375 C-161.65427444 301.80726624 -160.92183014 302.00515747 -160.16719055 302.20904541 C-158.63752661 302.62062554 -157.10742646 303.03058773 -155.5769043 303.43896484 C-153.23563012 304.06635066 -150.89821366 304.70697868 -148.56054688 305.34765625 C-147.06532397 305.74821721 -145.56988845 306.14798559 -144.07421875 306.546875 C-143.03197395 306.8357962 -143.03197395 306.8357962 -141.96867371 307.1305542 C-136.22739612 308.63410272 -133.45914459 307.96303766 -128.41015625 305.16796875 C-127.63349609 304.73806641 -126.85683594 304.30816406 -126.05664062 303.86523438 C-125.25419922 303.41470703 -124.45175781 302.96417969 -123.625 302.5 C-122.82642578 302.06107422 -122.02785156 301.62214844 -121.20507812 301.16992188 C-117.00676551 298.82902346 -113.27601931 296.38378395 -109.5625 293.3125 C-103.85763029 289.68589197 -97.95242874 286.45500323 -91.875 283.5 C-82.45327489 278.87523676 -73.51904275 273.33679949 -64.5625 267.87890625 C-43.90797382 255.3125 -43.90797382 255.3125 -39.5625 255.3125 C-39.5625 254.6525 -39.5625 253.9925 -39.5625 253.3125 C-40.21605469 253.07015625 -40.86960938 252.8278125 -41.54296875 252.578125 C-45.43719326 250.94587566 -49.14004306 249.02828734 -52.875 247.0625 C-53.69532715 246.63138916 -54.5156543 246.20027832 -55.36083984 245.75610352 C-63.29334958 241.53849233 -71.02758273 237.00052745 -78.76318359 232.43457031 C-84.76744389 228.90265249 -90.81513112 225.51709527 -97 222.3125 C-101.96627343 219.73628179 -106.73008403 217.05367186 -111.3203125 213.84765625 C-115.30029073 211.12268858 -119.43107358 208.64275664 -123.5625 206.15625 C-126.5625 204.3125 -126.5625 204.3125 -128.5625 202.84375 C-130.88568536 201.19071426 -132.81808802 200.26108774 -135.6940918 200.4597168 C-143.71073224 202.02616881 -151.59120678 204.03491156 -159.47924805 206.14379883 C-161.7547278 206.75126214 -164.0324572 207.34967376 -166.31054688 207.94726562 C-167.78399674 208.33800442 -169.25730899 208.72926261 -170.73046875 209.12109375 C-171.39837936 209.2961998 -172.06628998 209.47130585 -172.75444031 209.65171814 C-176.05974588 210.54140055 -179.25396915 211.54353183 -182.4465332 212.78076172 C-186.96517041 214.51825074 -191.57284417 215.77630567 -196.25 217.01171875 C-197.60291138 217.37158623 -197.60291138 217.37158623 -198.9831543 217.73872375 C-200.87847244 218.24091459 -202.77439871 218.74081537 -204.67089844 219.23852539 C-207.55683073 219.99850705 -210.43850049 220.77338995 -213.3203125 221.54882812 C-215.17163238 222.03737866 -217.02318745 222.525039 -218.875 223.01171875 C-219.72731201 223.24291916 -220.57962402 223.47411957 -221.45776367 223.71232605 C-227.79715808 225.35114479 -233.60146012 226.48574222 -239.875 224 C-244.04455611 221.38190663 -245.18463088 220.42721389 -246.8125 215.625 C-247.98673647 210.25706184 -247.49677144 205.73061432 -245.5 200.5625 C-240.55523509 194.82019236 -232.35257676 193.21008079 -225.28125 191.4375 C-224.30949829 191.18629395 -223.33774658 190.93508789 -222.33654785 190.67626953 C-219.24730527 189.87985995 -216.15503094 189.09603145 -213.0625 188.3125 C-211.01801881 187.78727648 -208.97374594 187.26124136 -206.9296875 186.734375 C-195.81991373 183.87703894 -184.69559908 181.07747713 -173.5625 178.3125 C-177.12660896 175.91329452 -180.69474655 173.64593258 -184.44140625 171.54296875 C-187.02077238 170.04665138 -189.53581677 168.45874231 -192.0625 166.875 C-199.36438105 162.352764 -206.8421997 158.15678396 -214.33984375 153.96899414 C-231.79491433 144.19361955 -231.79491433 144.19361955 -234.5625 138.3125 C-235.2124507 132.46294372 -234.51796281 128.53381763 -231.5625 123.3125 C-228.76330318 119.93910896 -227.22110395 118.66364588 -222.9609375 117.76171875 C-214.1953852 117.17195204 -207.71990666 120.50313466 -200.5625 125.3125 C-200.08176025 125.80282715 -199.60102051 126.2931543 -199.10571289 126.79833984 C-196.50772524 129.34741742 -193.23253401 130.88860909 -190.0625 132.625 C-188.98500488 133.22320557 -188.98500488 133.22320557 -187.88574219 133.83349609 C-183.022283 136.52852706 -178.13475956 139.17916757 -173.24609375 141.828125 C-168.29878473 144.56462781 -163.43184358 147.44018214 -158.5625 150.3125 C-159.92210521 143.02166315 -161.65234479 135.87822738 -163.56640625 128.71484375 C-164.14797885 126.50981636 -164.7293531 124.30473665 -165.31054688 122.09960938 C-166.2187276 118.66720237 -167.12890132 115.23535265 -168.04272461 111.80444336 C-168.93126011 108.46354032 -169.81181842 105.12061192 -170.69140625 101.77734375 C-170.96432999 100.7614769 -171.23725372 99.74561005 -171.51844788 98.69895935 C-175.80701097 82.33695626 -175.80701097 82.33695626 -172.65234375 75.0390625 C-170.26339016 71.25441201 -166.66418243 69.67972748 -162.5625 68.3125 C-156.44156919 67.81078436 -153.4457905 68.22416377 -148.5625 72.3125 C-145.92443738 75.33618894 -144.89239561 77.99004444 -143.9140625 81.86328125 C-143.63046875 82.95576172 -143.346875 84.04824219 -143.0546875 85.17382812 C-142.76851563 86.31271484 -142.48234375 87.45160156 -142.1875 88.625 C-140.38938528 95.70507673 -138.48717728 102.67691533 -136.1171875 109.58984375 C-133.30386719 117.80079799 -131.16785131 126.14705276 -129.0625 134.5625 C-128.47698465 136.87846907 -127.88974506 139.19399684 -127.30247498 141.50952148 C-126.9191088 143.02188033 -126.53641699 144.53441029 -126.1544342 146.04711914 C-124.46282069 152.73936854 -122.70222033 159.41260188 -120.8828125 166.07128906 C-120.11802523 168.91998408 -119.5625 171.34614031 -119.5625 174.3125 C-118.33080078 174.66054688 -118.33080078 174.66054688 -117.07421875 175.015625 C-112.83693935 176.58044898 -109.22117942 178.71922478 -105.375 181.0625 C-99.81866127 184.41805219 -94.20973614 187.62530031 -88.50073242 190.71484375 C-83.24396649 193.57319658 -78.03113114 196.51028229 -72.8125 199.4375 C-71.18634766 200.34822266 -71.18634766 200.34822266 -69.52734375 201.27734375 C-64.19286894 204.26699447 -58.86537751 207.2671332 -53.5625 210.3125 C-53.5625 210.9725 -53.5625 211.6325 -53.5625 212.3125 C-52.68384277 212.57981934 -51.80518555 212.84713867 -50.89990234 213.12255859 C-47.69928415 214.26373 -45.07095003 215.60742998 -42.1640625 217.3515625 C-41.19082031 217.93164062 -40.21757812 218.51171875 -39.21484375 219.109375 C-38.21582031 219.71265625 -37.21679688 220.3159375 -36.1875 220.9375 C-35.16527344 221.54851562 -34.14304688 222.15953125 -33.08984375 222.7890625 C-30.57757927 224.29172537 -28.06864279 225.79965715 -25.5625 227.3125 C-24.93139585 213.56967312 -24.45452256 199.83039027 -24.16357136 186.07592297 C-24.0237634 179.68507174 -23.83498928 173.30425847 -23.52563477 166.91918945 C-20.80965319 135.00572917 -20.80965319 135.00572917 -33.19399929 106.99375248 C-38.1283897 101.85756499 -43.62829067 97.44469026 -49.49284363 93.41973877 C-54.3657909 90.07458799 -58.91099996 86.40341785 -62.64453125 81.7890625 C-65.9197163 77.94225202 -69.42258592 74.38583834 -73.01171875 70.8359375 C-73.59559357 70.25765198 -74.17946838 69.67936646 -74.78103638 69.08355713 C-77.21988598 66.67205362 -79.66249659 64.26443652 -82.10961914 61.86132812 C-83.91478441 60.08649173 -85.71356938 58.30537771 -87.51171875 56.5234375 C-88.05970627 55.98890961 -88.60769379 55.45438171 -89.17228699 54.90365601 C-94.41675074 49.69342244 -98.2880408 44.99735764 -98.5625 37.3125 C-97.74419132 32.30035931 -95.49855795 29.63724732 -91.62109375 26.58203125 C-86.86822176 23.65094321 -82.54618949 22.84362794 -77.125 24.125 C-68.45038954 28.71157565 -61.79905292 37.05315223 -55.3984375 44.3203125 C-53.39339146 46.51778225 -51.27833454 48.45478495 -49.01025391 50.37841797 C-43.9569468 54.7670422 -39.26950383 59.49599843 -34.5625 64.25 C-33.69238281 65.12462891 -32.82226562 65.99925781 -31.92578125 66.90039062 C-29.80236451 69.03547449 -27.68133622 71.17287205 -25.5625 73.3125 C-25.55663376 72.51149872 -25.55076752 71.71049744 -25.54472351 70.88522339 C-25.48673028 63.32278587 -25.414616 55.76067533 -25.32678509 48.1985302 C-25.28212835 44.31108564 -25.24286217 40.42374475 -25.21606445 36.53613281 C-25.18998417 32.78173713 -25.14954914 29.02774134 -25.09931374 25.2735939 C-25.08267679 23.84398512 -25.07114277 22.41430722 -25.06488609 20.98461533 C-25.05521133 18.97644765 -25.02542573 16.96840777 -24.99487305 14.96044922 C-24.97821846 13.2483577 -24.97821846 13.2483577 -24.96122742 11.50167847 C-24.35611874 6.66178165 -22.44341421 2.38489041 -18.5625 -0.6875 C-12.49486578 -2.71004474 -5.77943984 -2.7376294 0 0 Z " fill="#87C8F8" transform="translate(265.5625,1.6875)"/>
</svg>
